<svg xmlns="http://www.w3.org/2000/svg" height="800" width="1200" viewBox="-14.3046 -11.35125 123.9732 68.1075"><linearGradient y2="28.2001" x2="77.7114" y1="-.8008" x1="77.7114" gradientUnits="userSpaceOnUse" id="a"><stop offset="0" stop-color="gray"/><stop offset="1" stop-color="#1a1a1a"/></linearGradient><path d="M67.943 32.02a.5038.5038 0 01.234-.607c-.002-.006 1.032-.553 2.305-1.646 1.15-.984 2.471-2.395 3.356-4.174-7.799-1.279-13.756-6.348-13.78-12.635C60.095 5.666 68.07.002 77.71 0c9.643.002 17.615 5.666 17.654 12.957-.024 6.41-6.223 11.555-14.248 12.705-1.519 2.266-4.979 5.314-12.613 6.684a.654.654 0 01-.088.008.5038.5038 0 01-.472-.334zM65.875 4.553c-3.011 2.189-4.819 5.16-4.819 8.404-.024 5.736 5.76 10.691 13.582 11.744.153.018.292.111.367.246a.504.504 0 01.027.443c-1.051 2.465-2.842 4.287-4.26 5.438 5.896-1.525 8.477-4.102 9.628-5.898.077-.125.21-.207.354-.227 7.837-1.045 13.634-6.004 13.608-11.746.002-3.244-1.808-6.215-4.816-8.404C86.542 2.369 82.35 1 77.71 1.002h-.011c-4.635 0-8.821 1.369-11.824 3.551z" fill="url(#a)"/><linearGradient y2="42.5249" x2="6.8062" y1="28.4854" x1="6.8062" gradientUnits="userSpaceOnUse" id="b"><stop offset="0" stop-color="#0c80c4"/><stop offset="1" stop-color="#0a659b"/></linearGradient><path d="M13.612 42.877l-1.755.941c-1.37.77-2.611.857-3.253.857-3.595 0-5.865-1.883-5.865-6.467 0-.982 0-3.293.044-5.178l.129-6.592H0V22.5l2.912.086.17-7.706h5.222l-.171 7.706 4.794-.086v3.938H8.133l-.127 6.336c-.044 2.141-.044 4.111-.044 5.693 0 1.41.47 2.268 1.755 2.268.899 0 1.669-.512 2.398-1.027z" fill="url(#b)"/><linearGradient y2="45.2892" x2="24.75" y1="28.5664" x1="24.75" gradientUnits="userSpaceOnUse" id="c"><stop offset="0" stop-color="#ed1a3b"/><stop offset="1" stop-color="#d82037"/></linearGradient><path d="M15.632 26.268c4.709-3.85 7.107-4.365 9.418-4.365 3.21 0 6.164 2.014 6.164 6.207 0 .77 0 1.24-.042 1.799L31 36.115c-.042.982-.085 1.799-.085 2.695 0 1.197.599 2.055 1.155 2.055.258 0 .643-.129 1.542-.557l1.241 2.609c-2.269 1.498-3.51 1.758-4.495 1.758-1.84 0-3.339-1.07-3.724-2.869-1.541 1.799-3.468 2.869-5.522 2.869-3.852 0-6.464-2.439-6.464-6.291 0-3.469 2.227-6.467 11.558-8.006v-1.412c0-2.398-1.026-2.869-2.482-2.869-1.07 0-2.354.43-5.607 2.953zm10.531 7.449c-4.967 1.113-6.549 2.313-6.549 4.492 0 1.586 1.112 2.527 2.739 2.527 1.07 0 2.482-.682 3.725-2.01z" fill="url(#c)"/><linearGradient y2="43.7802" x2="39.5977" y1="23.2578" x1="39.5977" gradientUnits="userSpaceOnUse" id="d"><stop offset="0" stop-color="#fee000"/><stop offset="1" stop-color="#f9b118"/></linearGradient><path d="M37.116 11.972h5.221l-.256 32.104h-5.223z" fill="url(#d)"/><linearGradient y2="40.5075" x2="55.8452" y1="29.5039" x1="55.8452" gradientUnits="userSpaceOnUse" id="e"><stop offset="0" stop-color="#14ae4b"/><stop offset="1" stop-color="#119948"/></linearGradient><path d="M47.006 11.972h5.221l-.257 20.589h.086l9.16-11.342 3.725 3.123-7.534 8.477 7.534 9.629-4.281 2.957-8.604-11.9h-.086v10.572h-5.222z" fill="url(#e)"/><path d="M78.593 2.227C84.6 3.889 88.915 8.391 88.915 13.699c0 3.674-2.074 6.961-5.338 9.193 5.456-1.867 9.171-5.543 9.171-9.777 0-5.426-6.102-9.931-14.155-10.888z" fill="#a7a6a6"/></svg>